<svg width="23" height="22" viewBox="0 0 23 22" fill="none" xmlns="http://www.w3.org/2000/svg">
<path d="M11.6939 5.31441C8.57073 5.31441 6.05154 7.7191 6.05154 10.7003C6.05154 13.6816 8.57073 16.0863 11.6939 16.0863C14.8172 16.0863 17.3363 13.6816 17.3363 10.7003C17.3363 7.7191 14.8172 5.31441 11.6939 5.31441ZM11.6939 14.2019C9.67564 14.2019 8.02564 12.6316 8.02564 10.7003C8.02564 8.7691 9.67073 7.19879 11.6939 7.19879C13.7172 7.19879 15.3622 8.7691 15.3622 10.7003C15.3622 12.6316 13.7122 14.2019 11.6939 14.2019V14.2019ZM18.8832 5.0941C18.8832 5.79254 18.2939 6.35035 17.5671 6.35035C16.8355 6.35035 16.2511 5.78785 16.2511 5.0941C16.2511 4.40035 16.8404 3.83785 17.5671 3.83785C18.2939 3.83785 18.8832 4.40035 18.8832 5.0941ZM22.6203 6.3691C22.5368 4.68629 22.1341 3.19566 20.8426 1.96754C19.556 0.739416 17.9944 0.355041 16.2314 0.270666C14.4145 0.172229 8.9685 0.172229 7.15154 0.270666C5.3935 0.350353 3.8319 0.734728 2.54038 1.96285C1.24887 3.19098 0.8511 4.6816 0.762707 6.36441C0.659583 8.09879 0.659583 13.2972 0.762707 15.0316C0.846189 16.7144 1.24887 18.205 2.54038 19.4332C3.8319 20.6613 5.38859 21.0457 7.15154 21.13C8.9685 21.2285 14.4145 21.2285 16.2314 21.13C17.9944 21.0503 19.556 20.666 20.8426 19.4332C22.1292 18.205 22.5319 16.7144 22.6203 15.0316C22.7234 13.2972 22.7234 8.10347 22.6203 6.3691V6.3691ZM20.2729 16.8925C19.8899 17.8113 19.1484 18.5191 18.181 18.8894C16.7323 19.4378 13.2948 19.3113 11.6939 19.3113C10.0931 19.3113 6.65065 19.4332 5.2069 18.8894C4.2444 18.5238 3.50288 17.816 3.11494 16.8925C2.54038 15.5097 2.67297 12.2285 2.67297 10.7003C2.67297 9.17222 2.54529 5.88629 3.11494 4.50816C3.49797 3.58941 4.23949 2.8816 5.2069 2.51129C6.65556 1.96285 10.0931 2.08941 11.6939 2.08941C13.2948 2.08941 16.7372 1.96754 18.181 2.51129C19.1435 2.87691 19.885 3.58473 20.2729 4.50816C20.8475 5.89098 20.7149 9.17222 20.7149 10.7003C20.7149 12.2285 20.8475 15.5144 20.2729 16.8925Z" fill="white"/>
</svg>
