<?xml version="1.0" encoding="utf-8"?>
<!-- Generator: Adobe Illustrator 21.1.0, SVG Export Plug-In . SVG Version: 6.00 Build 0)  -->
<svg version="1.1" id="Layer_1" xmlns="http://www.w3.org/2000/svg" xmlns:xlink="http://www.w3.org/1999/xlink" x="0px" y="0px"
	 viewBox="0 0 281.1 80.9" style="enable-background:new 0 0 281.1 80.9;" xml:space="preserve">
<style type="text/css">
	.st0{fill:#B1059D;}
	.st1{fill:#B5ACA6;}
</style>
<g>
	<g>
		<path class="st0" d="M105.1,43.5H94.2V10.9h10.9v21.7h10.8V10.9h10.9v32.6h-10.9 M0,48.2h6.2v6.2H0V48.2z M10.9,43.5H0V10.9h21.8
			v10.9H10.9v10.9h13.6V10.9H57v32.7L10.9,43.5L10.9,43.5z M46.2,32.6V21.8H35.3v10.9L46.2,32.6L46.2,32.6z M59.3,43.5V10.9H92v32.7
			H70.2v10.9H59.3V43.5z M81.1,32.6V21.8H70.2v10.9L81.1,32.6L81.1,32.6z M140,43.5h-10.8V32.6l10.8-7.2l5.5-3.6h-16.3V10.9h32.6
			v10.9L150.9,29l-5.4,3.6h16.3v10.9h-10.9"/>
	</g>
	<g>
		<path class="st1" d="M236.7,21.7v10.9h-10.9V0h54.4v32.6h-10.9V10.9h-10.9v21.7h-10.9V10.9h-10.8 M177.1,32.6h-10.9V0H188v10.9
			h-10.9v10.9h13.6V0h32.7v32.7h-46.3C177.1,32.7,177.1,32.6,177.1,32.6z M212.4,21.7V10.9h-10.9v10.9h10.9V21.7z M166.2,37.2h6.2
			v6.2h-6.2V37.2z"/>
	</g>
</g>
<path class="st0" d="M1.2,70.5h3.2v3.9l3.3-3.9h4.2l-3.7,3.9l3.9,6.4H8.2L6,76.5l-1.6,1.7v2.5H1.2V70.5z M25.2,75.6
	c0-1.7,0.5-3,1.4-3.9s2.2-1.4,3.9-1.4c1.7,0,3,0.5,3.9,1.4s1.4,2.2,1.4,3.8c0,1.2-0.2,2.2-0.6,2.9c-0.4,0.8-1,1.4-1.7,1.8
	c-0.8,0.4-1.7,0.6-2.8,0.6c-1.2,0-2.1-0.2-2.9-0.6s-1.4-1-1.8-1.7C25.4,77.8,25.2,76.8,25.2,75.6z M28.3,75.6c0,1,0.2,1.8,0.6,2.2
	c0.4,0.5,0.9,0.7,1.6,0.7s1.2-0.2,1.6-0.7c0.4-0.4,0.6-1.2,0.6-2.4c0-1-0.2-1.7-0.6-2.1c-0.4-0.4-0.9-0.7-1.6-0.7
	c-0.6,0-1.1,0.2-1.5,0.7C28.5,73.9,28.3,74.6,28.3,75.6z M50.5,70.5h4.7c0.9,0,1.7,0.1,2.2,0.4c0.6,0.3,1,0.6,1.4,1.1s0.6,1,0.8,1.6
	s0.3,1.3,0.3,2c0,1.1-0.1,1.9-0.4,2.5c-0.2,0.6-0.6,1.1-1,1.5s-0.9,0.7-1.4,0.8c-0.7,0.2-1.3,0.3-1.9,0.3h-4.7
	C50.5,80.7,50.5,70.5,50.5,70.5z M53.6,72.8v5.6h0.8c0.7,0,1.1-0.1,1.4-0.2c0.3-0.1,0.5-0.4,0.7-0.8s0.2-1,0.2-1.8
	c0-1.1-0.2-1.8-0.5-2.2c-0.4-0.4-0.9-0.6-1.8-0.6C54.4,72.8,53.6,72.8,53.6,72.8z M86.2,70.5h3.2v10.2h-3.2V70.5z M104.5,70.5h3
	l3.9,5.7v-5.7h3v10.2h-3l-3.8-5.6v5.6h-3L104.5,70.5L104.5,70.5z M128.6,70.5h9.6V73H135v7.7h-3.2V73h-3.2V70.5z M152.6,70.5h8.5
	v2.2h-5.3v1.6h4.9v2.1h-4.9v2h5.5v2.3h-8.6L152.6,70.5L152.6,70.5L152.6,70.5z M175.9,80.8V70.5h5.3c1,0,1.7,0.1,2.2,0.3
	c0.5,0.2,0.9,0.5,1.3,0.9c0.3,0.5,0.5,1,0.5,1.7c0,0.6-0.1,1.1-0.4,1.5c-0.2,0.4-0.6,0.7-1,1c-0.3,0.2-0.6,0.3-1.1,0.4
	c0.4,0.1,0.7,0.3,0.8,0.4l0.5,0.5c0.2,0.3,0.4,0.5,0.4,0.6l1.5,3h-3.6l-1.7-3.1c-0.2-0.4-0.4-0.7-0.6-0.8c-0.2-0.2-0.5-0.2-0.8-0.2
	h-0.3v4.2L175.9,80.8L175.9,80.8L175.9,80.8z M179.1,74.7h1.3c0.1,0,0.4,0,0.8-0.1c0.2,0,0.4-0.2,0.5-0.3c0.1-0.2,0.2-0.4,0.2-0.6
	c0-0.3-0.1-0.6-0.3-0.8c-0.2-0.2-0.6-0.3-1.2-0.3H179v2.1C179,74.7,179.1,74.7,179.1,74.7z M200,70.5h3l3.9,5.7v-5.7h3v10.2h-3
	l-3.8-5.6v5.6h-3L200,70.5L200,70.5L200,70.5z M224.8,70.5h8.5v2.2H228v1.6h4.9v2.1H228v2h5.5v2.3h-8.6L224.8,70.5L224.8,70.5
	L224.8,70.5z M247.3,70.5h9.6V73h-3.2v7.7h-3.2V73h-3.2C247.3,73,247.3,70.5,247.3,70.5z M278,70.5h3.2v6.1c0,0.6-0.1,1.2-0.3,1.7
	c-0.2,0.5-0.5,1-0.9,1.4s-0.8,0.7-1.3,0.8c-0.6,0.2-1.4,0.3-2.2,0.3c-0.5,0-1,0-1.6-0.1s-1.1-0.2-1.5-0.4c-0.4-0.2-0.8-0.5-1.1-0.9
	c-0.3-0.4-0.6-0.8-0.7-1.2c-0.2-0.7-0.3-1.2-0.3-1.7v-6.1h3.2v6.3c0,0.6,0.2,1,0.5,1.3s0.7,0.5,1.3,0.5c0.5,0,1-0.2,1.3-0.5
	s0.5-0.7,0.5-1.3v-6.2L278,70.5z"/>
</svg>
